<svg id="Layer_1" data-name="Layer 1" xmlns="http://www.w3.org/2000/svg" viewBox="0 0 499.99 121.54"><defs><style>.cls-1{fill:#fd4314;}</style></defs><title>RAD-Week</title><path class="cls-1" d="M105.18,59.08a3.9,3.9,0,0,0-.29,1.38,1.83,1.83,0,0,0,.33,1.12,2.55,2.55,0,0,0,2.32.91h9.21a2.63,2.63,0,0,0,2.32-.94,1.89,1.89,0,0,0,.36-1.12,3.83,3.83,0,0,0-.29-1.34l-5-12.47q-.8-1.85-2-1.85t-2,1.85Zm-17.08,22A1.81,1.81,0,0,1,87.78,80a3.82,3.82,0,0,1,.33-1.41l18.49-46.26A3.33,3.33,0,0,1,110,30h4.31a3.33,3.33,0,0,1,3.41,2.32l18.49,46.26a3.8,3.8,0,0,1,.33,1.41,1.7,1.7,0,0,1-.33,1.05,2.63,2.63,0,0,1-2.32.94h-3.12a3.29,3.29,0,0,1-3.41-2.28l-2.54-6.27a3.3,3.3,0,0,0-3.41-2.28H102.86a3.29,3.29,0,0,0-3.41,2.28l-2.54,6.27A3.29,3.29,0,0,1,93.5,82H90.39a2.58,2.58,0,0,1-2.28-.94" transform="translate(0.08 -0.38)"/><path class="cls-1" d="M172.49,73.72h4.32q9.35,0,13.81-4.33T195.07,56q0-9-4.46-13.34T176.8,38.38h-4.32q-2.94,0-2.94,3v29.4q0,3,2.94,3M161.21,33a2.63,2.63,0,0,1,3-3H176.8q12.58,0,19.54,6.63,7,6.82,7,19.36t-7,19.4Q189.53,82,176.8,82H164.19a2.63,2.63,0,0,1-3-3Z" transform="translate(0.08 -0.38)"/><path class="cls-1" d="M226.14,33.41a3.9,3.9,0,0,1-.18-1.09,2.18,2.18,0,0,1,.44-1.34,2.58,2.58,0,0,1,2.28-.94h2.61a3.35,3.35,0,0,1,3.41,2.46L244,61.9a3.33,3.33,0,0,0,1.18,1.83,1.2,1.2,0,0,0,1.47,0,3.35,3.35,0,0,0,1.12-1.89l8.85-29.33A3.19,3.19,0,0,1,260,30h3.52a3.19,3.19,0,0,1,3.34,2.46l8.74,29.33q.62,2.07,1.85,2.1h.07q1.23,0,1.88-2l9.35-29.4a3.34,3.34,0,0,1,3.4-2.46h2.6A2.53,2.53,0,0,1,297,31a2,2,0,0,1,.4,1.23,3.8,3.8,0,0,1-.22,1.19L282.49,79.55A3.33,3.33,0,0,1,279.11,82h-3.52a3.19,3.19,0,0,1-3.34-2.47l-8.66-28.71A3.32,3.32,0,0,0,262.45,49,1.19,1.19,0,0,0,261,49a3.35,3.35,0,0,0-1.12,1.89l-8.59,28.71A3.21,3.21,0,0,1,247.89,82h-3.55a3.34,3.34,0,0,1-3.41-2.47Z" transform="translate(0.08 -0.38)"/><path class="cls-1" d="M326.29,79.05V33a2.63,2.63,0,0,1,3-3h31.18a2.63,2.63,0,0,1,3,3v2.61a2.63,2.63,0,0,1-3,3H337.75a2.63,2.63,0,0,0-3,3v7.8a2.63,2.63,0,0,0,3,3h19a2.63,2.63,0,0,1,3,3v2.57a2.63,2.63,0,0,1-3,3h-19a2.63,2.63,0,0,0-3,3v6.71q0,2.94,3,2.94h22.69a2.63,2.63,0,0,1,3,3v2.61a2.63,2.63,0,0,1-3,3H329.27a2.63,2.63,0,0,1-3-3" transform="translate(0.08 -0.38)"/><path class="cls-1" d="M395.51,79.05V33a2.63,2.63,0,0,1,3-3h31.18a2.63,2.63,0,0,1,3,3v2.61a2.63,2.63,0,0,1-3,3H407a2.63,2.63,0,0,0-3,3v7.8a2.63,2.63,0,0,0,3,3h19a2.63,2.63,0,0,1,3,3v2.57a2.63,2.63,0,0,1-3,3H407a2.63,2.63,0,0,0-3,3v6.71q0,2.94,3,2.94h22.69a2.63,2.63,0,0,1,3,3v2.61a2.63,2.63,0,0,1-3,3H398.49a2.63,2.63,0,0,1-3-3" transform="translate(0.08 -0.38)"/><path class="cls-1" d="M462.39,79.05V33a2.63,2.63,0,0,1,3-3h2.36a2.63,2.63,0,0,1,3,3v9.21q0,2,1.12,2.46a1.36,1.36,0,0,0,.54.11,2.87,2.87,0,0,0,2-1.16l11.06-12A4.65,4.65,0,0,1,489,30h4.17q2,0,2.47,1.09a1.46,1.46,0,0,1,.14.65,3,3,0,0,1-1,1.92L478.12,51.79a3,3,0,0,0-1,2.07,3.12,3.12,0,0,0,1,2.1L498.93,78.4a3,3,0,0,1,1,1.92,1.1,1.1,0,0,1-.11.62Q499.29,82,497.33,82h-4.21a4.69,4.69,0,0,1-3.66-1.63L474.35,64a2.88,2.88,0,0,0-2-1.16,1.54,1.54,0,0,0-.54.11q-1.16.43-1.12,2.47V79.05a2.63,2.63,0,0,1-3,3h-2.36a2.63,2.63,0,0,1-3-3" transform="translate(0.08 -0.38)"/><path class="cls-1" d="M61,3Q61,.38,63,.38h1.72q2,0,2,2.66V119.26q0,2.66-2,2.66H63q-2,0-2-2.66Z" transform="translate(0.08 -0.38)"/><path class="cls-1" d="M30.59,41.35a2.63,2.63,0,0,0-3-3H15a5.57,5.57,0,0,0-4.64,2,7.61,7.61,0,0,0-1.6,4.88,7.87,7.87,0,0,0,1.61,5,5.62,5.62,0,0,0,4.7,2H27.62a2.63,2.63,0,0,0,3-3ZM35.92,82H33.57a2.63,2.63,0,0,1-3-3V63.61a2.63,2.63,0,0,0-3-3H25.19a4.16,4.16,0,0,0-3.59,1.85L9.2,80.18A4.37,4.37,0,0,1,5.58,82H2.46Q.61,82,.1,81a2.69,2.69,0,0,1-.18-.76A3.52,3.52,0,0,1,.61,78.4L11.12,63.46a2.93,2.93,0,0,0,.58-1.6q0-1.34-2.07-2.17a13.17,13.17,0,0,1-6.71-5.4,16.35,16.35,0,0,1-2.47-9A15.12,15.12,0,0,1,4.6,34.33,13.83,13.83,0,0,1,15,30H35.92a2.63,2.63,0,0,1,3,3v46a2.63,2.63,0,0,1-3,3" transform="translate(0.08 -0.38)"/></svg>