<svg id="Layer_1" data-name="Layer 1" xmlns="http://www.w3.org/2000/svg" viewBox="0 0 237.67 200.46"><title>RAF_logo_Rev</title><path d="M.33,187.79c0-2.91,2.13-4.62,5.75-4.62s5.32,1.44,5.32,3.42v2.57H7.56v-1.88c0-1.3-.61-1.85-1.57-1.85s-1.57.68-1.57,2v9.44A1.41,1.41,0,0,0,6,198.51c1.09,0,1.57-.62,1.57-1.68v-2.05H11.4v2.6c0,2.6-2.75,3.39-5.27,3.39-3.09,0-5.8-1.09-5.8-4.28Z"/><path d="M37.93,187.79c0-2.91,2.13-4.62,5.79-4.62,3.14,0,5.84,1.1,5.84,4.28v8.69c0,2.91-2.13,4.62-5.79,4.62-3.14,0-5.84-1.09-5.84-4.28Zm4.1,8.56c0,1.37.43,2.16,1.74,2.16s1.7-.78,1.7-2.16v-8.76c0-1.37-.44-2.16-1.7-2.16s-1.74.79-1.74,2.16Z"/><path d="M76.66,183.38h3.83v1.44h.09a3.77,3.77,0,0,1,1.56-1.2,5.2,5.2,0,0,1,2.23-.44c2,0,3.83.86,3.83,3.38v14H84.11V187.18c0-.89-.3-1.54-1.57-1.54a1.61,1.61,0,0,0-1.78,1.81v13.1h-4.1Z"/><path d="M115.34,183.38h3.84v1.44h.09a3.82,3.82,0,0,1,1.57-1.2,5.14,5.14,0,0,1,2.22-.44c2.05,0,3.84.86,3.84,3.38v14h-4.1V187.18c0-.89-.31-1.54-1.57-1.54a1.61,1.61,0,0,0-1.79,1.81v13.1h-4.1Z"/><path d="M153.85,187.79c0-2.91,2.13-4.62,5.93-4.62,3.26,0,6,1.1,6,4.28V193h-7.8v3.66c0,1.61.7,2.05,2,2.05,1.53,0,2-.86,2-2.22v-1.58h3.83v2.43c0,1.75-1.57,3.42-6.1,3.42-3.09,0-5.8-1.09-5.8-4.28Zm4.1,2.95h4v-3.35c0-1.55-.57-2.16-2-2.16s-2,.65-2,1.88Z"/><path d="M192.14,187.79c0-2.91,2.13-4.62,5.75-4.62s5.31,1.44,5.31,3.42v2.57h-3.83v-1.88c0-1.3-.61-1.85-1.57-1.85s-1.57.68-1.57,2v9.44a1.41,1.41,0,0,0,1.57,1.61c1.09,0,1.57-.62,1.57-1.68v-2.05h3.83v2.6c0,2.6-2.75,3.39-5.27,3.39-3.1,0-5.8-1.09-5.8-4.28Z"/><path d="M230.57,185.64h-2.05v-2.26h2.05v-3.25l4.09-1.13v4.38h2.53v2.26h-2.53v11.12c0,1.3.74,1.54,2,1.54a4,4,0,0,0,1-.1v2.26c-.48,0-1.53.1-2.66.1-3.27,0-4.44-.75-4.44-2.29Z"/><path d="M107.89,21C99.51,8.48,84.53,0,59.39,0,13.81,0,.08,28.16.08,57.74L0,163.68H30l0-113C30,38.09,40.61,24,58.66,24A27.82,27.82,0,0,1,83,37.39Z"/><path d="M106.59,102.65l-.07,61.21h-30l.08-105.93C76.59,28.36,90.32.2,135.91.2s57.76,27.89,57.76,57.47l-.15,106.21h-30V51.33c0-12.61-10.35-27.11-28.38-27.11s-28.67,14.07-28.67,26.67V78.36h125.1v24.15Z"/><path d="M238.1,25.07c-4.88-1-11.4-.95-16-.95-18,0-28.67,14.06-28.67,26.67l0,113h-30l.09-105.94C163.58,28.26,177.3.1,222.89.1a92.16,92.16,0,0,1,15.2,1Z"/><polyline points="187.55 78.03 231.96 78.03 231.96 102.7 187.88 102.77"/></svg>