<?xml version="1.0" encoding="utf-8"?>
<!-- Generator: Adobe Illustrator 21.1.0, SVG Export Plug-In . SVG Version: 6.00 Build 0)  -->
<svg version="1.1" id="Layer_1" xmlns="http://www.w3.org/2000/svg" xmlns:xlink="http://www.w3.org/1999/xlink" x="0px" y="0px"
	 viewBox="0 0 500 121.5" style="enable-background:new 0 0 500 121.5;" xml:space="preserve">
<style type="text/css">
	.st0{fill:#FD4314;}
</style>
<title>RAD-Week</title>
<path class="st0" d="M105.3,58.7c-0.2,0.4-0.3,0.9-0.3,1.4c0,0.4,0.1,0.8,0.3,1.1c0.6,0.7,1.4,1,2.3,0.9h9.2
	c0.9,0.1,1.8-0.3,2.3-0.9c0.2-0.3,0.4-0.7,0.4-1.1c0-0.5-0.1-0.9-0.3-1.3l-5-12.5c-0.5-1.2-1.2-1.8-2-1.8c-0.8,0-1.5,0.6-2,1.8
	L105.3,58.7z M88.2,80.7c-0.2-0.3-0.3-0.7-0.3-1.1c0-0.5,0.1-1,0.3-1.4l18.5-46.3c0.5-1.5,1.9-2.4,3.4-2.3h4.3
	c1.5-0.1,2.9,0.9,3.4,2.3l18.5,46.3c0.2,0.4,0.3,0.9,0.3,1.4c0,0.4-0.1,0.7-0.3,1.1c-0.6,0.7-1.4,1-2.3,0.9h-3.1
	c-1.5,0.1-2.9-0.8-3.4-2.3l-2.5-6.3c-0.5-1.5-1.9-2.4-3.4-2.3h-18.5c-1.5-0.1-2.9,0.8-3.4,2.3L97,79.3c-0.5,1.5-1.9,2.4-3.4,2.3
	h-3.1C89.6,81.7,88.7,81.4,88.2,80.7"/>
<path class="st0" d="M172.6,73.3h4.3c6.2,0,10.8-1.4,13.8-4.3s4.5-7.4,4.4-13.4c0-6-1.5-10.4-4.5-13.3c-3-2.9-7.6-4.3-13.8-4.3h-4.3
	c-2,0-2.9,1-2.9,3v29.4C169.6,72.4,170.6,73.4,172.6,73.3 M161.3,32.6c-0.2-1.4,0.8-2.8,2.2-3c0.3,0,0.5,0,0.8,0h12.6
	c8.4,0,14.9,2.2,19.5,6.6c4.7,4.5,7,11,7,19.4c0,8.4-2.3,14.8-7,19.4c-4.5,4.4-11.1,6.6-19.5,6.6h-12.6c-1.4,0.2-2.8-0.8-3-2.2
	c0-0.3,0-0.5,0-0.8L161.3,32.6z"/>
<path class="st0" d="M226.2,33c-0.1-0.4-0.2-0.7-0.2-1.1c0-0.5,0.1-1,0.4-1.3c0.6-0.7,1.4-1,2.3-0.9h2.6c1.6-0.1,3,0.9,3.4,2.5
	l9.3,29.4c0.2,0.7,0.6,1.4,1.2,1.8c0.4,0.3,1,0.3,1.5,0c0.6-0.5,1-1.2,1.1-1.9l8.8-29.3c0.3-1.6,1.8-2.6,3.4-2.5h3.5
	c1.6-0.1,3,0.9,3.3,2.5l8.7,29.3c0.4,1.4,1,2.1,1.9,2.1h0.1c0.8,0,1.4-0.7,1.9-2l9.4-29.4c0.4-1.5,1.8-2.5,3.4-2.5h2.6
	c0.9-0.1,1.7,0.3,2.2,1c0.3,0.4,0.4,0.8,0.4,1.2c0,0.4-0.1,0.8-0.2,1.2l-14.7,46.1c-0.4,1.5-1.8,2.5-3.4,2.4h-3.5
	c-1.6,0.1-3-0.9-3.3-2.5l-8.7-28.7c-0.2-0.7-0.6-1.4-1.1-1.8c-0.4-0.3-1-0.3-1.5,0c-0.6,0.5-1,1.2-1.1,1.9l-8.6,28.7
	c-0.4,1.5-1.8,2.5-3.4,2.4h-3.6c-1.6,0.1-3-0.9-3.4-2.5L226.2,33z"/>
<path class="st0" d="M326.4,78.7V32.6c-0.2-1.4,0.8-2.8,2.2-3c0.3,0,0.5,0,0.8,0h31.2c1.4-0.2,2.8,0.8,3,2.2c0,0.3,0,0.5,0,0.8v2.6
	c0.2,1.4-0.8,2.8-2.2,3c-0.3,0-0.5,0-0.8,0h-22.7c-1.4-0.2-2.8,0.8-3,2.2c0,0.3,0,0.5,0,0.8V49c-0.2,1.4,0.8,2.8,2.2,3
	c0.3,0,0.5,0,0.8,0h19c1.4-0.2,2.8,0.8,3,2.2c0,0.3,0,0.5,0,0.8v2.6c0.2,1.4-0.8,2.8-2.2,3c-0.3,0-0.5,0-0.8,0h-19
	c-1.4-0.2-2.8,0.8-3,2.2c0,0.3,0,0.5,0,0.8v6.7c0,2,1,2.9,3,2.9h22.7c1.4-0.2,2.8,0.8,3,2.2c0,0.3,0,0.5,0,0.8v2.6
	c0.2,1.4-0.8,2.8-2.2,3c-0.3,0-0.5,0-0.8,0h-31.2c-1.4,0.2-2.8-0.8-3-2.2c0-0.3,0-0.5,0-0.8"/>
<path class="st0" d="M395.6,78.7V32.6c-0.2-1.4,0.8-2.8,2.2-3c0.3,0,0.5,0,0.8,0h31.2c1.4-0.2,2.8,0.8,3,2.2c0,0.3,0,0.5,0,0.8v2.6
	c0.2,1.4-0.8,2.8-2.2,3c-0.3,0-0.5,0-0.8,0h-22.7c-1.4-0.2-2.8,0.8-3,2.2c0,0.3,0,0.5,0,0.8V49c-0.2,1.4,0.8,2.8,2.2,3
	c0.3,0,0.5,0,0.8,0h19c1.4-0.2,2.8,0.8,3,2.2c0,0.3,0,0.5,0,0.8v2.6c0.2,1.4-0.8,2.8-2.2,3c-0.3,0-0.5,0-0.8,0h-19
	c-1.4-0.2-2.8,0.8-3,2.2c0,0.3,0,0.5,0,0.8v6.7c0,2,1,2.9,3,2.9h22.7c1.4-0.2,2.8,0.8,3,2.2c0,0.3,0,0.5,0,0.8v2.6
	c0.2,1.4-0.8,2.8-2.2,3c-0.3,0-0.5,0-0.8,0h-31.2c-1.4,0.2-2.8-0.8-3-2.2c0-0.3,0-0.5,0-0.8"/>
<path class="st0" d="M462.5,78.7V32.6c-0.2-1.4,0.8-2.8,2.2-3c0.3,0,0.5,0,0.8,0h2.4c1.4-0.2,2.8,0.8,3,2.2c0,0.3,0,0.5,0,0.8v9.2
	c0,1.3,0.4,2.2,1.1,2.5c0.2,0.1,0.4,0.1,0.5,0.1c0.8-0.1,1.5-0.5,2-1.2l11.1-12c0.9-1,2.2-1.6,3.5-1.6h4.2c1.3,0,2.2,0.4,2.5,1.1
	c0.1,0.2,0.1,0.4,0.1,0.6c-0.1,0.7-0.4,1.4-1,1.9l-16.7,18.1c-0.6,0.5-1,1.3-1,2.1c0.1,0.8,0.4,1.6,1,2.1L499,78
	c0.6,0.5,0.9,1.2,1,1.9c0,0.2,0,0.4-0.1,0.6c-0.4,0.7-1.2,1.1-2.5,1.1h-4.2c-1.4,0-2.7-0.6-3.7-1.6l-15.1-16.4
	c-0.5-0.6-1.2-1.1-2-1.2c-0.2,0-0.4,0-0.5,0.1c-0.8,0.3-1.1,1.1-1.1,2.5v13.6c0.2,1.4-0.8,2.8-2.2,3c-0.3,0-0.5,0-0.8,0h-2.4
	c-1.4,0.2-2.8-0.8-3-2.2C462.4,79.2,462.4,78.9,462.5,78.7"/>
<path class="st0" d="M61.1,2.6c0-1.7,0.7-2.6,2-2.6h1.7c1.3,0,2,0.9,2,2.7v116.2c0,1.8-0.7,2.7-2,2.7h-1.7c-1.3,0-2-0.9-2-2.7V2.6z"
	/>
<path class="st0" d="M30.7,41c0.2-1.4-0.8-2.8-2.2-3c-0.3,0-0.5,0-0.8,0H15.1c-1.8-0.1-3.5,0.6-4.6,2c-1.1,1.4-1.6,3.1-1.6,4.9
	c-0.1,1.8,0.5,3.6,1.6,5c1.2,1.4,2.9,2.1,4.7,2h12.6c1.4,0.2,2.8-0.8,3-2.2c0-0.3,0-0.5,0-0.8L30.7,41z M36,81.6h-2.3
	c-1.4,0.2-2.8-0.8-3-2.2c0-0.3,0-0.5,0-0.8V63.2c0.2-1.4-0.8-2.8-2.2-3c-0.3,0-0.5,0-0.8,0h-2.4c-1.4,0-2.8,0.7-3.6,1.8L9.3,79.8
	c-0.8,1.2-2.2,1.8-3.6,1.8H2.5c-1.2,0-2-0.3-2.4-1C0.1,80.4,0,80.1,0,79.9c0.1-0.7,0.3-1.3,0.7-1.8l10.5-14.9c0.3-0.5,0.5-1,0.6-1.6
	c0-0.9-0.7-1.6-2.1-2.2c-2.8-1-5.1-2.9-6.7-5.4c-1.7-2.7-2.5-5.8-2.5-9c-0.1-4.1,1.3-8,4.1-11c2.7-2.9,6.5-4.4,10.4-4.3H36
	c1.4-0.2,2.8,0.8,3,2.2c0,0.3,0,0.5,0,0.8v46c0.2,1.4-0.8,2.8-2.2,3C36.5,81.7,36.3,81.7,36,81.6"/>
</svg>
