<?xml version="1.0" encoding="utf-8"?>
<!-- Generator: Adobe Illustrator 21.1.0, SVG Export Plug-In . SVG Version: 6.00 Build 0)  -->
<svg version="1.1" id="Layer_1" xmlns="http://www.w3.org/2000/svg" xmlns:xlink="http://www.w3.org/1999/xlink" x="0px" y="0px"
	 viewBox="0 0 237.7 200.5" style="enable-background:new 0 0 237.7 200.5;" xml:space="preserve">
<title>RAF_logo_Rev</title>
<path d="M0.3,187.8c0-2.9,2.1-4.6,5.8-4.6s5.3,1.4,5.3,3.4v2.6H7.6v-1.9c0-1.3-0.6-1.9-1.6-1.9s-1.6,0.7-1.6,2v9.4
	c-0.1,0.8,0.4,1.5,1.1,1.6c0.1,0,0.3,0,0.4,0c1.1,0,1.6-0.6,1.6-1.7v-2.1h3.8v2.6c0,2.6-2.8,3.4-5.3,3.4c-3.1,0-5.8-1.1-5.8-4.3
	L0.3,187.8z"/>
<path d="M37.9,187.8c0-2.9,2.1-4.6,5.8-4.6c3.1,0,5.8,1.1,5.8,4.3v8.7c0,2.9-2.1,4.6-5.8,4.6c-3.1,0-5.8-1.1-5.8-4.3V187.8z
	 M42,196.3c0,1.4,0.4,2.2,1.7,2.2s1.7-0.8,1.7-2.2v-8.8c0-1.4-0.4-2.2-1.7-2.2s-1.7,0.8-1.7,2.2V196.3z"/>
<path d="M76.7,183.4h3.8v1.4h0.1c0.4-0.5,0.9-0.9,1.6-1.2c0.7-0.3,1.5-0.5,2.2-0.4c2,0,3.8,0.9,3.8,3.4v14h-4.1v-13.4
	c0-0.9-0.3-1.5-1.6-1.5c-0.9-0.1-1.7,0.5-1.8,1.4c0,0.1,0,0.3,0,0.4v13.1h-4.1V183.4z"/>
<path d="M115.3,183.4h3.8v1.4h0.1c0.4-0.5,1-0.9,1.6-1.2c0.7-0.3,1.5-0.5,2.2-0.4c2.1,0,3.8,0.9,3.8,3.4v14h-4.1v-13.4
	c0-0.9-0.3-1.5-1.6-1.5c-0.9-0.1-1.7,0.5-1.8,1.4c0,0.1,0,0.3,0,0.4v13.1h-4.1L115.3,183.4z"/>
<path d="M153.9,187.8c0-2.9,2.1-4.6,5.9-4.6c3.3,0,6,1.1,6,4.3v5.6H158v3.7c0,1.6,0.7,2.1,2,2.1c1.5,0,2-0.9,2-2.2v-1.6h3.8v2.4
	c0,1.8-1.6,3.4-6.1,3.4c-3.1,0-5.8-1.1-5.8-4.3L153.9,187.8z M158,190.7h4v-3.4c0-1.6-0.6-2.2-2-2.2s-2,0.6-2,1.9V190.7z"/>
<path d="M192.1,187.8c0-2.9,2.1-4.6,5.8-4.6s5.3,1.4,5.3,3.4v2.6h-3.8v-1.9c0-1.3-0.6-1.9-1.6-1.9s-1.6,0.7-1.6,2v9.4
	c-0.1,0.8,0.4,1.5,1.2,1.6c0.1,0,0.3,0,0.4,0c1.1,0,1.6-0.6,1.6-1.7v-2.1h3.8v2.6c0,2.6-2.8,3.4-5.3,3.4c-3.1,0-5.8-1.1-5.8-4.3
	L192.1,187.8z"/>
<path d="M230.6,185.6h-2.1v-2.3h2.1v-3.2l4.1-1.1v4.4h2.5v2.3h-2.5v11.1c0,1.3,0.7,1.5,2,1.5c0.3,0,0.7,0,1-0.1v2.3
	c-0.5,0-1.5,0.1-2.7,0.1c-3.3,0-4.4-0.8-4.4-2.3L230.6,185.6z"/>
<path d="M107.9,21C99.5,8.5,84.5,0,59.4,0C13.8,0,0.1,28.2,0.1,57.7L0,163.7h30v-113C30,38.1,40.6,24,58.7,24
	c9.9-0.2,19.2,4.9,24.3,13.4L107.9,21z"/>
<path d="M106.6,102.7l-0.1,61.2h-30l0.1-105.9c0-29.6,13.7-57.7,59.3-57.7s57.8,27.9,57.8,57.5l-0.1,106.2h-30V51.3
	c0-12.6-10.4-27.1-28.4-27.1s-28.7,14.1-28.7,26.7v27.5h125.1v24.2L106.6,102.7z"/>
<path d="M238.1,25.1c-4.9-1-11.4-1-16-1c-18,0-28.7,14.1-28.7,26.7v113h-30l0.1-105.9c0.1-29.6,13.8-57.8,59.4-57.8
	c5.1-0.1,10.2,0.2,15.2,1L238.1,25.1z"/>
<polyline points="187.6,78 232,78 232,102.7 187.9,102.8 "/>
</svg>
